<?xml version="1.0" encoding="UTF-8"?><svg id="Layer_2" xmlns="http://www.w3.org/2000/svg" viewBox="0 0 150 118.35"><defs><style>.cls-1{fill:none;stroke:#2d3529;stroke-linecap:round;stroke-linejoin:round;stroke-width:3px;}</style></defs><g id="Layer_1-2"><path class="cls-1" d="M148.5,59.17c0,31.86-32.91,57.68-73.5,57.68-16.84,0-32.35-4.44-44.73-11.91L1.5,116.85l11.26-26.99c-7.14-8.88-11.26-19.41-11.26-30.69C1.5,27.32,34.4,1.5,75,1.5s73.5,25.82,73.5,57.67Z"/><polygon class="cls-1" points="96.49 40.66 96.49 54.35 81.87 54.35 81.87 91.73 68.13 91.73 68.13 54.35 53.51 54.35 53.51 40.66 68.13 40.66 68.13 26.61 81.87 26.61 81.87 40.66 96.49 40.66"/><line class="cls-1" x1="107.91" y1="47.51" x2="120.98" y2="47.51"/><line class="cls-1" x1="105.86" y1="40.66" x2="111.8" y2="37.06"/><line class="cls-1" x1="105.86" y1="54.35" x2="111.8" y2="57.95"/><line class="cls-1" x1="42.09" y1="47.51" x2="29.02" y2="47.51"/><line class="cls-1" x1="44.14" y1="40.66" x2="38.2" y2="37.06"/><line class="cls-1" x1="44.14" y1="54.35" x2="38.2" y2="57.95"/></g></svg>