<?xml version="1.0" encoding="UTF-8"?><svg id="Layer_2" xmlns="http://www.w3.org/2000/svg" viewBox="0 0 125.28 150"><defs><style>.cls-1{fill:none;stroke:#2d3529;stroke-linecap:round;stroke-linejoin:round;stroke-width:3px;}</style></defs><g id="Layer_1-2"><path class="cls-1" d="M2.94,79.86c-1.11-4.44-2.17-11.02-.79-18.61.43-2.33,1.14-6.06,3.43-10.38,6.47-12.17,18.7-16.11,20.25-16.59.34-.1.54-.17.87-.25,7.53-1.96,16.84.95,21.94,7.3,3.62,4.5,4.41,9.89,5.17,15.05.11.79.29,2.22.43,4.68.13,2.27.09,4.65-.07,7.12"/><path class="cls-1" d="M8.48,97.94c7.97,24.73,17.98,50.08,31.42,50.55,6.35.21,10.94-3.39,10.94-3.39,4.12-3.23,5.52-7.84,5.97-9.79.87-3.73.78-7.7.25-11.85-.61-4.71-1.85-9.67-3.22-14.73-.53-1.97-.93-4-1.2-6.06-.62-4.82-.57-9.86-.24-14.85"/><path class="cls-1" d="M55.27,80.07c-.6,3.43-1.87,6.06-2.86,7.76-.76-.69-1.36-1.56-1.72-2.58-2.07-5.77-5.98-10.85-10.26-15.2-6.75-6.7-13.38-7.16-19.92.37-4.12,4.6-7.78,9.99-9.59,16-.89,2.97-1.5,6.03-1.68,9.14-.06.88-.32,1.69-.76,2.39-1.5-2.04-3.62-5.48-4.77-10.18-.75-3.11-.86-5.85-.77-7.89,1-2.4,2.19-4.71,3.57-6.94,3.21-4.78,6.56-9.39,11.11-13.17,2.75-2.3,5.68-3.74,8.66-4.44l-.19-5.95c-.05-1.87,1.42-3.44,3.29-3.5,1.87-.06,3.44,1.41,3.5,3.29l.18,5.77c5.18.62,10.26,3.15,14.61,7.01,2.28,1.97,4.46,4.04,6.49,6.23.77,2.12,2.03,6.49,1.09,11.89Z"/><path class="cls-1" d="M122.33,47.94c1.11-4.44,2.17-11.02.79-18.61-.43-2.33-1.14-6.06-3.43-10.38-6.47-12.17-18.7-16.11-20.25-16.59-.34-.1-.54-.17-.87-.25-7.53-1.96-16.84.95-21.94,7.3-3.62,4.5-4.41,9.89-5.17,15.05-.11.79-.29,2.22-.43,4.68-.13,2.27-.09,4.65.07,7.12"/><path class="cls-1" d="M116.79,66.01c-7.97,24.73-17.98,50.08-31.42,50.55-6.35.21-10.94-3.39-10.94-3.39-4.12-3.23-5.52-7.84-5.97-9.79-.87-3.73-.78-7.7-.25-11.85.61-4.71,1.85-9.67,3.22-14.73.53-1.97.93-4,1.2-6.06.62-4.82.57-9.86.24-14.85"/><path class="cls-1" d="M70.01,48.14c.6,3.43,1.87,6.06,2.86,7.76.76-.69,1.36-1.56,1.72-2.58,2.07-5.77,5.98-10.85,10.26-15.2,6.75-6.7,13.38-7.16,19.92.37,4.12,4.6,7.78,9.99,9.59,16,.89,2.97,1.5,6.03,1.68,9.14.06.88.32,1.69.76,2.39,1.5-2.04,3.62-5.48,4.77-10.18.75-3.11.86-5.85.77-7.89-1-2.4-2.19-4.71-3.57-6.94-3.21-4.78-6.56-9.39-11.11-13.17-2.75-2.3-5.68-3.74-8.66-4.44l.19-5.95c.05-1.87-1.42-3.44-3.29-3.5-1.87-.06-3.44,1.41-3.5,3.29l-.18,5.77c-5.18.62-10.26,3.15-14.61,7.01-2.28,1.97-4.46,4.04-6.49,6.23-.77,2.12-2.03,6.49-1.09,11.89Z"/></g></svg>