<?xml version="1.0" encoding="UTF-8"?><svg id="Layer_2" xmlns="http://www.w3.org/2000/svg" viewBox="0 0 111.57 150"><defs><style>.cls-1{fill:none;stroke:#2d3529;stroke-linecap:round;stroke-linejoin:round;stroke-width:3px;}</style></defs><g id="Layer_1-2"><path class="cls-1" d="M15.61,143.64c-2.32-1.53-4.42-3.41-6.21-5.61-3.12-3.84-4.83-8-4.83-12.32,0-9.2,7.69-17.58,20.31-23.9"/><path class="cls-1" d="M30.77,148.47c.41.02.81.03,1.22.03h70.05c.16,0,.32,0,.48-.02.09,0,.2,0,.3-.03.03,0,.07,0,.09,0,.12,0,.23-.03.35-.04.54-.08,1.06-.21,1.54-.39.15-.06.31-.12.45-.19.16-.07.31-.15.47-.22.31-.16.62-.34.9-.54.26-.19.51-.38.75-.6.03-.02.05-.04.07-.06.09-.09.19-.18.28-.27.12-.12.23-.23.34-.36l.28-.33c.53-.67.94-1.42,1.24-2.24.04-.12.09-.25.13-.38.06-.2.11-.38.15-.58.04-.19.08-.38.11-.57h0c.03-.21.05-.41.07-.62s.03-.41.03-.62v-23.15h0c0-.47,0-.94-.03-1.41"/><line class="cls-1" x1="84.68" y1="90.17" x2="84.67" y2="90.17"/><path class="cls-1" d="M54.15,92.6h0c-.15.03-.31.06-.48.09h0"/><path class="cls-1" d="M53.66,92.69c-2.28-.89-6.15-2.03-10.89-1.59-12.52,1.16-18.97,12.22-19.39,12.98-2.45,4.36-3.09,8.6-3.23,11.43"/><path class="cls-1" d="M97.12,93.14c-3.17-2.08-13.33-8.13-26.69-6.49-12.32,1.52-21.05,8.8-23.79,12.68-2.54,3.59-3.49,7.37-3.49,7.37-.39,1.56-.53,2.9-.59,3.87"/><path class="cls-1" d="M110.07,117.28v23.16c0,4.45-3.59,8.06-8.03,8.06h-39.82v-31.21c0-15.01,10.71-27.17,23.92-27.17,6.6,0,12.59,3.04,16.91,7.95,4.33,4.92,7.01,11.71,7.01,19.22Z"/><path class="cls-1" d="M33.15,81.43c-.71.05-1.43.07-2.15.07s-1.45-.03-2.16-.07C12.09,80.22-.45,65.07,1.75,48.08l.16-1.18c3.5.06,3.56,2.36,7.15,2.36s3.65-2.36,7.3-2.36,3.66,2.36,7.31,2.36,3.65-2.36,7.31-2.36,3.65,2.36,7.31,2.36,3.65-2.36,7.31-2.36,3.65,2.36,7.31,2.36,3.66-2.29,7.15-2.36l.16,1.18c2.2,16.99-10.35,32.15-27.08,33.35Z"/><path class="cls-1" d="M60.08,46.9c-3.49.06-3.55,2.36-7.15,2.36s-3.66-2.36-7.31-2.36-3.66,2.36-7.31,2.36-3.66-2.36-7.31-2.36-3.66,2.36-7.31,2.36-3.65-2.36-7.31-2.36-3.65,2.36-7.3,2.36-3.65-2.29-7.15-2.36L7.81,1.5h46.37l5.9,45.4Z"/><line class="cls-1" x1="31.13" y1="81.48" x2="31.13" y2="136.77"/><polygon class="cls-1" points="31.13 136.77 4.7 148.48 57.55 148.48 31.13 136.77"/></g></svg>