<?xml version="1.0" encoding="UTF-8"?><svg id="Layer_2" xmlns="http://www.w3.org/2000/svg" viewBox="0 0 118.2 150"><defs><style>.cls-1{fill:none;stroke:#2d3529;stroke-linecap:round;stroke-linejoin:round;stroke-width:3px;}</style></defs><g id="Layer_1-2"><path class="cls-1" d="M59.11,148.45c-27.72,0-51.51-19.81-56.59-47.11-.68-3.52-1.02-7.13-1.02-10.73,0-11.68,3.44-22.92,9.94-32.51,5.24-7.72,11.01-12.22,13.14-13.78.47-.34.42-.29.79-.57,1.96-1.44,10.08-7.43,13.61-17.67,3.98-11.56-.17-21.96-1.31-24.59,6.45,1.44,15.22,4.37,23.85,10.74,13.8,10.18,20.55,24.18,23.87,35.27,2.11,7.06,10.9,9.36,16.11,4.17l4.61-4.6,8.15,26.84c2.02,6.66,2.8,13.68,2.31,20.85-1.91,27.72-23.23,50.14-50.69,53.29-2.24.26-4.51.39-6.75.39Z"/><path class="cls-1" d="M26.57,118.13c1.08,15.65,13.08,28.33,28.6,30.14,17.66,2.06,32.92-10.03,35.96-26.46.38-1.97.58-3.99.58-6.06,0-6.83-2.07-13.16-5.62-18.4-2.05-3-4.57-5.66-7.47-7.83-.16-.13-.34-.24-.51-.36-7.94-5.97-13.09-15.49-13.09-26.23v-.15c-12.15,3.13-21.58,13.14-23.9,25.67-.38,1.95-.56,3.97-.56,6.03,0,2.25.23,4.45.66,6.57,1.57,7.71-8.62,12.06-13.12,5.62-.08-.11-.15-.22-.23-.33-1.12,3.7-1.58,7.68-1.3,11.81Z"/></g></svg>