<?xml version="1.0" encoding="UTF-8"?><svg id="Layer_2" xmlns="http://www.w3.org/2000/svg" viewBox="0 0 150 126.11"><defs><style>.cls-1{fill:none;stroke:#2d3529;stroke-linecap:round;stroke-linejoin:round;stroke-width:3px;}</style></defs><g id="Layer_1-2"><path class="cls-1" d="M75.02,9.32s-.02.02-.02.03v-.08s.03-.05.05-.05h.06s-.03.03-.03.03l-.06.06Z"/><path class="cls-1" d="M148.5,9.28v106.27s-.02.04-.04.04h-51.73c-4.06,0-8.03.81-11.71,2.33-3.68,1.52-7.06,3.75-9.93,6.61-.03.03-.09,0-.09-.03v-9.94l.09-.08c4.93-4.96,11.65-7.75,18.65-7.75h45.05s.04-.02.04-.04V9.23h9.63s.04.03.04.05Z"/><path class="cls-1" d="M32.02,106.73v8.86H1.55s-.05-.02-.05-.04V9.28s.03-.05.05-.05h9.62v97.46s.03.04.05.04h20.8Z"/><path class="cls-1" d="M75,9.28v.08s0-.03,0-.03l-.06-.06s-.03-.03-.03-.03h.06s.04.03.04.05Z"/><path class="cls-1" d="M75,114.55v9.94s-.05.07-.08.03c-5.75-5.72-13.53-8.94-21.66-8.94h-9.41v-8.86h12.4c7.01,0,13.73,2.79,18.65,7.75l.09.08Z"/><path class="cls-1" d="M138.83,1.55v105.14s-.02.04-.04.04h-45.05c-7.01,0-13.73,2.79-18.65,7.75l-.09.08V9.36s0-.03.02-.03l.06-.06s.03-.03.03-.03c4.99-4.94,11.74-7.73,18.77-7.73h44.9s.04.03.04.05Z"/><path class="cls-1" d="M32.08,1.5s-.06.03-.06.05v105.18H11.22s-.05-.02-.05-.04V1.55s.03-.05.05-.05h20.86Z"/><path class="cls-1" d="M75,9.36v105.2l-.09-.08c-4.93-4.96-11.65-7.75-18.65-7.75h-12.4V1.55s-.02-.05-.05-.05h12.31c7.04,0,13.79,2.79,18.78,7.73l.03.03.06.06s0,.02,0,.03Z"/><line class="cls-1" x1="128.14" y1="29.56" x2="85.69" y2="29.56"/><line class="cls-1" x1="128.14" y1="41.84" x2="85.69" y2="41.84"/><line class="cls-1" x1="128.14" y1="54.12" x2="85.69" y2="54.12"/><line class="cls-1" x1="128.14" y1="66.4" x2="85.69" y2="66.4"/><line class="cls-1" x1="128.14" y1="78.67" x2="85.69" y2="78.67"/><path class="cls-1" d="M43.86,1.55v123.05c-1.97-1.37-3.94-2.74-5.92-4.12-1.97,1.37-3.94,2.75-5.92,4.12V1.55s.03-.05.06-.05h11.72l.05.05Z"/><line class="cls-1" x1="32.02" y1="29.57" x2="21.87" y2="29.57"/><line class="cls-1" x1="64.32" y1="29.57" x2="43.86" y2="29.57"/><line class="cls-1" x1="32.02" y1="41.84" x2="21.87" y2="41.84"/><line class="cls-1" x1="64.32" y1="41.84" x2="43.86" y2="41.84"/><line class="cls-1" x1="32.02" y1="54.12" x2="21.86" y2="54.12"/><line class="cls-1" x1="64.32" y1="54.12" x2="43.86" y2="54.12"/><line class="cls-1" x1="32.02" y1="66.4" x2="21.86" y2="66.4"/><line class="cls-1" x1="64.32" y1="66.4" x2="43.86" y2="66.4"/><line class="cls-1" x1="32.02" y1="78.68" x2="21.86" y2="78.68"/><line class="cls-1" x1="64.32" y1="78.68" x2="43.86" y2="78.68"/></g></svg>