<?xml version="1.0" encoding="UTF-8"?><svg id="Layer_2" xmlns="http://www.w3.org/2000/svg" viewBox="0 0 150 149.56"><defs><style>.cls-1{fill:none;stroke:#2d3529;stroke-linecap:round;stroke-linejoin:round;stroke-width:3px;}</style></defs><g id="Layer_1-2"><path class="cls-1" d="M60.73,85.22l3.54-33.32c0-2.96,2.4-5.35,5.37-5.35h0c2.96,0,5.37,2.4,5.37,5.35v32.99"/><path class="cls-1" d="M26.05,148.06c8.66-4.55,17.32-9.09,25.98-13.64l-14.77-43.64c-11.92,6.26-23.84,12.52-35.77,18.77"/><path class="cls-1" d="M48.57,124.18c5.23-2.74,10.47-5.49,15.7-8.24,5.92,0,10.74-4.79,10.74-10.69V6.86c0-1.47-.6-2.81-1.57-3.78-.92-.93-2.18-1.5-3.57-1.57-3.08-.12-5.59,2.54-5.59,5.6v9.02c0,6.19-.79,12.36-2.44,18.33-1.04,3.73-2.21,7.6-3.57,11.59-1.83,5.38-3.79,10.39-5.78,15.01-1.18,11.89-2.35,23.77-3.53,35.65-2.74,1.44-5.47,2.88-8.21,4.32"/><path class="cls-1" d="M89.27,85.22l-3.54-33.32c0-2.96-2.4-5.35-5.37-5.35h0c-2.96,0-5.37,2.4-5.37,5.35v32.99"/><path class="cls-1" d="M123.95,148.06c-8.66-4.55-17.32-9.09-25.98-13.64l14.77-43.64c11.92,6.26,23.84,12.52,35.77,18.77"/><path class="cls-1" d="M101.43,124.18c-5.23-2.74-10.47-5.49-15.7-8.24-5.92,0-10.74-4.79-10.74-10.69V6.86c0-1.47.6-2.81,1.57-3.78.92-.93,2.18-1.5,3.57-1.57,3.08-.12,5.59,2.54,5.59,5.6v9.02c0,6.19.79,12.36,2.44,18.33,1.04,3.73,2.21,7.6,3.57,11.59,1.83,5.38,3.79,10.39,5.78,15.01,1.18,11.89,2.35,23.77,3.53,35.65,2.74,1.44,5.47,2.88,8.21,4.32"/></g></svg>