<?xml version="1.0" encoding="UTF-8"?><svg id="Layer_2" xmlns="http://www.w3.org/2000/svg" viewBox="0 0 110.71 150"><defs><style>.cls-1{fill:none;stroke:#2d3529;stroke-linecap:round;stroke-linejoin:round;stroke-width:3px;}</style></defs><g id="Layer_1-2"><path class="cls-1" d="M23.96,37.68c0,5.52,4.46,10,9.96,10"/><path class="cls-1" d="M36.72,1.5c2.44,7.7,4.87,15.41,7.29,23.11,3.43,4.53,7.62,11.02,10.94,19.5.71,1.82,1.33,3.6,1.88,5.32,3.08,9.8,8.58,18.68,16.2,25.55l.25.22c.79.72,1.83,1.12,2.89,1.12,1.55,0,2.96.63,3.98,1.65s1.65,2.44,1.65,4-.63,2.98-1.65,4-2.43,1.65-3.98,1.65h-22.1c-4.61,0-8.88-2.43-11.25-6.39-1.54-2.56-3.07-5.11-4.59-7.66-3.88-6.47-9.8-11.48-16.82-14.2l-3.73-1.45c-9.8-3.81-13.36-16.05-6.94-24.41l.15-.2c1.55-1.99,3.14-3.69,4.69-5.15-.5-4.27-1.59-9.9-4.02-16.13-1.6-4.08-3.45-7.6-5.26-10.54"/><path class="cls-1" d="M109.21,100c0,18.36-11.7,34.3-28.85,42.27H30.35C13.2,134.3,1.5,118.36,1.5,100h107.71Z"/><path class="cls-1" d="M30.35,142.27h50.01v3.76c0,1.36-1.1,2.46-2.46,2.46h-45.08c-1.36,0-2.46-1.1-2.46-2.46v-3.76h0Z"/></g></svg>