<?xml version="1.0" encoding="UTF-8"?><svg id="Layer_2" xmlns="http://www.w3.org/2000/svg" viewBox="0 0 132.15 150"><defs><style>.cls-1{fill:none;stroke:#2d3529;stroke-linecap:round;stroke-linejoin:round;stroke-width:3px;}</style></defs><g id="Layer_1-2"><path class="cls-1" d="M27.85,103.71c-.5-1.43-1.81-4.57-4.99-7.09-1.97-1.56-3.95-2.31-5.25-2.68-.62-1.83-1.26-3.66-1.88-5.48-1.23-3.6-2.46-7.2-3.69-10.79-.65-2.24-3.01-3.54-5.23-2.9-2.23.65-3.53,3.02-2.89,5.26.67,5.98,1.34,11.96,2.02,17.95-.07,5.42.72,13.34,5.15,21.22.82,1.46,1.7,2.79,2.59,4-.21,1.35-.42,2.7-.63,4.05"/><path class="cls-1" d="M33.51,55.92c-2.06,9.52-4.12,19.03-6.17,28.55"/><path class="cls-1" d="M27.34,84.47c2.28-10.54,4.55-21.07,6.83-31.61.47-2.18,2.62-3.57,4.79-3.09l.08.02c2.17.47,3.55,2.63,3.08,4.81-2.16,10-4.32,20-6.49,30"/><path class="cls-1" d="M15.74,88.45c2.99-10.1,5.97-20.21,8.96-30.31.5-2.16,2.65-3.54,4.79-3.09,2.17.45,3.6,2.62,3.16,4.82-1.77,8.2-3.55,16.4-5.32,24.6"/><path class="cls-1" d="M35.63,84.6c1.66-7.67,3.31-15.33,4.97-23,.47-2.18,2.62-3.57,4.79-3.1l.08.02c2.18.47,3.56,2.63,3.09,4.81l-5.31,24.54"/><path class="cls-1" d="M38.44,131.96c.38-2.44.69-4.48,1.28-8.28,1.81-1.36,6.25-5.08,8.63-11.67,2.22-6.15,1.44-11.48.99-13.72,1.67-7.74,3.35-15.48,5.02-23.22.47-2.18-.91-4.34-3.08-4.81-.03,0-.06,0-.08-.01-2.15-.47-4.28.89-4.78,3.03,0,.02,0,.04-.01.06-1.05,4.85-2.09,9.69-3.14,14.55"/><path class="cls-1" d="M41.63,148.5q1.2-7.76,2.39-15.51c-12.18-2.26-24.36-4.53-36.54-6.79-1.15,7.42-2.29,14.83-3.44,22.25"/><line class="cls-1" x1="66.08" y1="1.5" x2="66.08" y2="15.3"/><line class="cls-1" x1="43.65" y1="5.47" x2="48.35" y2="18.44"/><line class="cls-1" x1="23.93" y1="16.89" x2="32.77" y2="27.47"/><line class="cls-1" x1="1.5" y1="55.87" x2="8.27" y2="57.07"/><path class="cls-1" d="M104.3,103.71c.5-1.43,1.81-4.57,4.99-7.09,1.97-1.56,3.95-2.31,5.25-2.68.62-1.83,1.26-3.66,1.88-5.48,1.23-3.6,2.46-7.2,3.69-10.79.65-2.24,3.01-3.54,5.23-2.9,2.23.65,3.53,3.02,2.89,5.26-.67,5.98-1.34,11.96-2.02,17.95.07,5.42-.72,13.34-5.15,21.22-.82,1.46-1.7,2.79-2.59,4,.21,1.35.42,2.7.63,4.05"/><path class="cls-1" d="M98.64,55.92c2.06,9.52,4.12,19.03,6.17,28.55"/><path class="cls-1" d="M104.81,84.47c-2.28-10.54-4.55-21.07-6.83-31.61-.47-2.18-2.62-3.57-4.79-3.09l-.08.02c-2.17.47-3.55,2.63-3.08,4.81,2.16,10,4.32,20,6.49,30"/><path class="cls-1" d="M116.4,88.45c-2.99-10.1-5.97-20.21-8.96-30.31-.5-2.16-2.65-3.54-4.79-3.09-2.17.45-3.6,2.62-3.16,4.82,1.77,8.2,3.55,16.4,5.32,24.6"/><path class="cls-1" d="M96.52,84.6c-1.66-7.67-3.31-15.33-4.97-23-.47-2.18-2.62-3.57-4.79-3.1l-.08.02c-2.18.47-3.56,2.63-3.09,4.81l5.31,24.54"/><path class="cls-1" d="M93.71,131.96c-.38-2.44-.69-4.48-1.28-8.28-1.81-1.36-6.25-5.08-8.63-11.67-2.22-6.15-1.44-11.48-.99-13.72-1.67-7.74-3.35-15.48-5.02-23.22-.47-2.18.91-4.34,3.08-4.81.03,0,.06,0,.08-.01,2.15-.47,4.28.89,4.78,3.03,0,.02,0,.04.01.06,1.05,4.85,2.09,9.69,3.14,14.55"/><path class="cls-1" d="M90.52,148.5q-1.2-7.76-2.39-15.51c12.18-2.26,24.36-4.53,36.54-6.79,1.15,7.42,2.29,14.83,3.44,22.25"/><line class="cls-1" x1="130.65" y1="55.87" x2="123.87" y2="57.07"/><line class="cls-1" x1="108.23" y1="16.89" x2="99.38" y2="27.47"/><line class="cls-1" x1="88.5" y1="5.47" x2="83.8" y2="18.44"/><line class="cls-1" x1="9.29" y1="34.4" x2="18.33" y2="39.64"/><line class="cls-1" x1="122.86" y1="34.4" x2="113.82" y2="39.64"/></g></svg>